<svg width="800" height="800" viewBox="0 0 800 800" fill="none" xmlns="http://www.w3.org/2000/svg">
<rect width="800" height="800" rx="40" fill="black"/>
<path d="M400.001 700L333.334 666.667M400.001 700L466.667 666.667M400.001 700V616.667M200.001 600L133.334 566.667V483.333M133.334 316.667V233.333M133.334 233.333L200.001 200M133.334 233.333L200.001 266.667M333.334 133.333L400.001 100L466.667 133.333M600.001 200L666.667 233.333M666.667 233.333L600.001 266.667M666.667 233.333V316.667M400.001 366.667L333.334 333.333M400.001 366.667L466.667 333.333M400.001 366.667V450M600.001 600L666.667 566.667V483.333" stroke="white" stroke-width="66.6667" stroke-linecap="round" stroke-linejoin="round"/>
</svg>
